<?xml version="1.0" encoding="UTF-8" standalone="no"?>
<!DOCTYPE svg PUBLIC "-//W3C//DTD SVG 1.1//EN" "http://www.w3.org/Graphics/SVG/1.1/DTD/svg11.dtd">
<svg width="100%" height="100%" viewBox="0 0 473 101" version="1.1" xmlns="http://www.w3.org/2000/svg" xmlns:xlink="http://www.w3.org/1999/xlink" xml:space="preserve" xmlns:serif="http://www.serif.com/" style="fill-rule:evenodd;clip-rule:evenodd;">
    <g transform="matrix(1,0,0,1,-75.621,-132.792)">
        <g transform="matrix(1,0,0,1,0,-469.794)">
            <rect x="466.093" y="615.537" width="81.595" height="80.719" style="fill:rgb(252,252,252);"/>
        </g>
        <g transform="matrix(0.212419,0,0,-0.212419,506.891,186.103)">
            <rect x="-192.063" y="-190" width="384.125" height="380" style="fill:none;stroke:rgb(112,112,112);stroke-width:1px;"/>
        </g>
        <g transform="matrix(1,0,0,1.02511,0,-493.34)">
            <rect x="405.935" y="611.22" width="49.537" height="97.55" style="fill:rgb(252,252,252);"/>
        </g>
        <g transform="matrix(0.212419,0,0,-0.217754,430.704,183.229)">
            <rect x="-116.602" y="-229.617" width="233.203" height="459.234" style="fill:none;stroke:rgb(112,112,112);stroke-width:0.99px;"/>
        </g>
        <g transform="matrix(1,0,0,1,0,-487.781)">
            <rect x="366.233" y="651.88" width="29.082" height="26.021" style="fill:rgb(252,252,252);"/>
        </g>
        <g transform="matrix(0.212419,0,0,-0.212419,380.774,177.11)">
            <rect x="-68.453" y="-61.25" width="136.906" height="122.5" style="fill:none;stroke:rgb(112,112,112);stroke-width:1px;"/>
        </g>
        <g transform="matrix(1,0,0,1,0,-409.579)">
            <rect x="319.364" y="608.796" width="75.951" height="33.987" style="fill:rgb(252,252,252);"/>
        </g>
        <g transform="matrix(0.212419,0,0,-0.212419,357.339,216.21)">
            <rect x="-178.776" y="-80" width="357.552" height="160" style="fill:none;stroke:rgb(112,112,112);stroke-width:1px;"/>
        </g>
        <g transform="matrix(1,0,0,1,0,-423.387)">
            <rect x="182.961" y="621.01" width="125.782" height="23.366" style="fill:rgb(252,252,252);"/>
        </g>
        <g transform="matrix(0.212419,0,0,-0.212419,245.852,209.306)">
            <rect x="-296.07" y="-55" width="592.141" height="110" style="fill:none;stroke:rgb(112,112,112);stroke-width:1px;"/>
        </g>
        <g transform="matrix(1,0,0,1.11254,0,-544.108)">
            <rect x="118.087" y="608.796" width="54.253" height="89.884" style="fill:rgb(252,252,252);"/>
        </g>
        <g transform="matrix(0.212419,0,0,-0.236325,145.213,183.204)">
            <rect x="-127.703" y="-211.573" width="255.406" height="423.145" style="fill:none;stroke:rgb(112,112,112);stroke-width:0.95px;"/>
        </g>
        <g transform="matrix(0.212419,0,0,-0.212419,74.3597,282.941)">
            <path d="M156.353,356.145L160.437,356.229C164.52,356.312 172.686,356.479 180.936,356.562C189.186,356.645 197.52,356.645 205.853,356.645L230.853,356.645" style="fill:none;fill-rule:nonzero;stroke:rgb(102,102,102);stroke-width:2px;"/>
        </g>
        <g transform="matrix(1,0,0,1,0,-427.635)">
            <path d="M121.103,633.543L123.652,634.818L121.103,636.092L121.103,633.543Z" style="fill:rgb(51,51,51);fill-rule:nonzero;"/>
        </g>
        <g transform="matrix(0.212419,0,0,-0.212419,74.3597,221.202)">
            <path d="M1324.55,210.823L1328.63,210.906C1332.71,210.989 1340.88,211.156 1349.13,211.239C1357.38,211.323 1365.71,211.323 1374.05,211.323L1399.05,211.323" style="fill:none;fill-rule:nonzero;stroke:rgb(102,102,102);stroke-width:2px;"/>
        </g>
        <g transform="matrix(1,0,0,1,0,-489.374)">
            <path d="M369.249,664.412L371.798,665.687L369.249,666.962L369.249,664.412Z" style="fill:rgb(51,51,51);fill-rule:nonzero;"/>
        </g>
        <g transform="matrix(0.212419,0,0,-0.212419,74.3597,282.835)">
            <path d="M327.291,356.145L377.291,356.145" style="fill:none;fill-rule:nonzero;stroke:rgb(102,102,102);stroke-width:2px;"/>
        </g>
        <g transform="matrix(1,0,0,1,0,-427.635)">
            <path d="M152.209,633.543L154.758,634.818L152.209,636.092L152.209,633.543Z" style="fill:rgb(51,51,51);fill-rule:nonzero;"/>
        </g>
        <g transform="matrix(0.212419,0,0,-0.212419,74.3597,286.108)">
            <path d="M436.259,366.145L440.426,365.381C444.593,364.616 452.926,363.086 461.259,362.321C469.593,361.557 477.926,361.557 486.259,361.557L536.259,361.557" style="fill:none;fill-rule:nonzero;stroke:rgb(102,102,102);stroke-width:2px;"/>
        </g>
        <g transform="matrix(1,0,0,1,0,-423.387)">
            <path d="M185.977,631.419L188.526,632.694L185.977,633.968L185.977,631.419Z" style="fill:rgb(51,51,51);fill-rule:nonzero;"/>
        </g>
        <g transform="matrix(0.212419,0,0,-0.212419,74.3597,287.083)">
            <path d="M623.306,366.145L673.306,366.145" style="fill:none;fill-rule:nonzero;stroke:rgb(102,102,102);stroke-width:2px;"/>
        </g>
        <g transform="matrix(1,0,0,1,0,-423.387)">
            <path d="M215.089,631.419L217.638,632.694L215.089,633.968L215.089,631.419Z" style="fill:rgb(51,51,51);fill-rule:nonzero;"/>
        </g>
        <g transform="matrix(0.212419,0,0,-0.212419,74.3597,287.083)">
            <path d="M727.4,366.145L777.4,366.145" style="fill:none;fill-rule:nonzero;stroke:rgb(102,102,102);stroke-width:2px;"/>
        </g>
        <g transform="matrix(1,0,0,1,0,-423.387)">
            <path d="M237.2,631.419L239.749,632.694L237.2,633.968L237.2,631.419Z" style="fill:rgb(51,51,51);fill-rule:nonzero;"/>
        </g>
        <g transform="matrix(0.212419,0,0,-0.212419,74.3597,287.083)">
            <path d="M849.103,366.145L899.103,366.145" style="fill:none;fill-rule:nonzero;stroke:rgb(102,102,102);stroke-width:2px;"/>
        </g>
        <g transform="matrix(1,0,0,1,0,-423.387)">
            <path d="M263.052,631.419L265.601,632.694L263.052,633.968L263.052,631.419Z" style="fill:rgb(51,51,51);fill-rule:nonzero;"/>
        </g>
        <g transform="matrix(0.212419,0,0,-0.212419,74.3597,287.083)">
            <path d="M981.041,366.145L1031.04,366.145" style="fill:none;fill-rule:nonzero;stroke:rgb(102,102,102);stroke-width:2px;"/>
        </g>
        <g transform="matrix(1,0,0,1,0,-423.387)">
            <path d="M291.078,631.419L293.627,632.694L291.078,633.968L291.078,631.419Z" style="fill:rgb(51,51,51);fill-rule:nonzero;"/>
        </g>
        <g transform="matrix(0.212419,0,0,-0.212419,74.3597,291.446)">
            <path d="M1078.4,386.685L1128.4,386.685C1136.73,386.685 1145.07,386.685 1161.41,383.262C1177.76,379.839 1202.11,372.992 1214.29,369.569L1226.46,366.145" style="fill:none;fill-rule:nonzero;stroke:rgb(102,102,102);stroke-width:2px;"/>
        </g>
        <g transform="matrix(1,0,0,1,0,-415.903)">
            <clipPath id="_clip1">
                <path d="M332.612,627.61L335.883,628.529L335.194,630.983L331.922,630.063L332.612,627.61Z" clip-rule="nonzero"/>
            </clipPath>
            <g clip-path="url(#_clip1)">
                <path d="M333.021,627.725L335.13,629.641L332.331,630.178L333.021,627.725Z" style="fill:rgb(51,51,51);fill-rule:nonzero;"/>
            </g>
        </g>
        <g transform="matrix(0.212419,0,0,-0.212419,74.3597,305.139)">
            <path d="M419.595,441.145L426.539,430.312C433.483,419.479 447.371,397.812 458.482,386.979C469.593,376.145 477.926,376.145 486.259,376.145L1128.4,376.145C1136.73,376.145 1145.07,376.145 1161.41,382.058C1177.76,387.971 1202.11,399.798 1214.29,405.711L1226.46,411.624" style="fill:none;fill-rule:nonzero;stroke:rgb(102,102,102);stroke-width:2px;"/>
        </g>
        <g transform="matrix(1,0,0,1,0,-404.592)">
            <clipPath id="_clip2">
                <path d="M331.882,622.335L334.939,620.851L336.052,623.144L332.995,624.628L331.882,622.335Z" clip-rule="nonzero"/>
            </clipPath>
            <g clip-path="url(#_clip2)">
                <path d="M332.264,622.15L335.113,622.183L333.377,624.443L332.264,622.15Z" style="fill:rgb(51,51,51);fill-rule:nonzero;"/>
            </g>
        </g>
        <g transform="matrix(0.212419,0,0,-0.212419,74.3597,298.766)">
            <path d="M1275.98,393.645L1414.75,393.645" style="fill:none;fill-rule:nonzero;stroke:rgb(102,102,102);stroke-width:2px;"/>
        </g>
        <g transform="matrix(1,0,0,1,0,-411.704)">
            <path d="M372.585,625.577L375.134,626.852L372.585,628.126L372.585,625.577Z" style="fill:rgb(51,51,51);fill-rule:nonzero;"/>
        </g>
        <g transform="matrix(0.212419,0,0,-0.212419,74.3597,247.939)">
            <path d="M1485.95,319.734L1490.12,318.06C1494.29,316.386 1502.62,313.038 1510.95,311.364C1519.29,309.691 1527.62,309.691 1535.95,309.691C1544.29,309.691 1552.62,309.691 1563.98,296.122C1575.33,282.553 1589.71,255.416 1596.9,241.848L1604.1,228.279" style="fill:none;fill-rule:nonzero;stroke:rgb(102,102,102);stroke-width:2px;"/>
        </g>
        <g transform="matrix(1,0,0,1,0,-445.503)">
            <clipPath id="_clip3">
                <path d="M414.953,641.951L416.544,644.954L414.292,646.148L412.701,643.145L414.953,641.951Z" clip-rule="nonzero"/>
            </clipPath>
            <g clip-path="url(#_clip3)">
                <path d="M415.152,642.327L415.219,645.176L412.9,643.52L415.152,642.327Z" style="fill:rgb(51,51,51);fill-rule:nonzero;"/>
            </g>
        </g>
        <g transform="matrix(0.212419,0,0,-0.212419,74.3597,291.563)">
            <path d="M1470.25,359.734L1535.95,359.734C1544.29,359.734 1552.62,359.734 1562.42,365.386C1572.22,371.038 1583.49,382.342 1589.12,387.993L1594.76,393.645" style="fill:none;fill-rule:nonzero;stroke:rgb(102,102,102);stroke-width:2px;"/>
        </g>
        <g transform="matrix(1,0,0,1,0,-423.767)">
            <clipPath id="_clip4">
                <path d="M410.294,632.738L412.694,630.33L414.499,632.13L412.099,634.537L410.294,632.738Z" clip-rule="nonzero"/>
            </clipPath>
            <g clip-path="url(#_clip4)">
                <path d="M410.594,632.437L413.296,631.531L412.399,634.236L410.594,632.437Z" style="fill:rgb(51,51,51);fill-rule:nonzero;"/>
            </g>
        </g>
        <g>
            <text x="493.797px" y="149.355px" style="font-family:'TrebuchetMS', 'Trebuchet MS', sans-serif;font-size:2.549px;">W<tspan x="495.852px 497.243px " y="149.355px 149.355px ">eb</tspan>i</text>
            <text x="499.39px" y="149.355px" style="font-family:'TrebuchetMS', 'Trebuchet MS', sans-serif;font-size:2.549px;">s</text>
            <text x="501.19px" y="149.355px" style="font-family:'TrebuchetMS', 'Trebuchet MS', sans-serif;font-size:2.549px;">STEREO-21</text>
        </g>
        <text x="424.786px" y="136.841px" style="font-family:'TrebuchetMS', 'Trebuchet MS', sans-serif;font-size:2.549px;">Finalize</text>
        <text x="373.668px" y="167.71px" style="font-family:'TrebuchetMS', 'Trebuchet MS', sans-serif;font-size:2.549px;">Metadata</text>
        <text x="349.629px" y="202.827px" style="font-family:'TrebuchetMS', 'Trebuchet MS', sans-serif;font-size:2.549px;">Alignment</text>
        <g>
            <text x="230.812px" y="201.234px" style="font-family:'TrebuchetMS', 'Trebuchet MS', sans-serif;font-size:2.549px;">Candidat</text>
            <text x="240.982px" y="201.234px" style="font-family:'TrebuchetMS', 'Trebuchet MS', sans-serif;font-size:2.549px;">e</text>
            <text x="243.139px" y="201.234px" style="font-family:'TrebuchetMS', 'Trebuchet MS', sans-serif;font-size:2.549px;">R<tspan x="244.519px 245.909px " y="201.234px 201.234px ">et</tspan>rieval</text>
        </g>
        <g transform="matrix(1,0,0,1,0.0703125,-10.1073)">
            <text x="134.773px" y="146.931px" style="font-family:'TrebuchetMS', 'Trebuchet MS', sans-serif;font-size:2.549px;">Data <tspan x="141.026px " y="146.931px ">S</tspan>ourcing</text>
        </g>
        <g transform="matrix(0.212419,0,0,-0.212419,74.3597,224.813)">
            <path d="M411.08,103L419.443,141.858C427.806,180.715 444.533,258.43 457.063,297.288C469.593,336.145 477.926,336.145 486.259,336.145L1614.69,336.145C1632.61,336.145 1650.52,336.145 1667.81,323.175C1685.11,310.204 1701.77,284.264 1710.11,271.293L1718.44,258.323" style="fill:none;fill-rule:nonzero;stroke:rgb(102,102,102);stroke-width:2px;"/>
        </g>
        <g transform="matrix(1,0,0,1,0,-504.523)">
            <clipPath id="_clip5">
                <path d="M438.992,671.487L440.83,674.346L438.685,675.725L436.848,672.866L438.992,671.487Z" clip-rule="nonzero"/>
            </clipPath>
            <g clip-path="url(#_clip5)">
                <path d="M439.222,671.845L439.528,674.678L437.077,673.223L439.222,671.845Z" style="fill:rgb(51,51,51);fill-rule:nonzero;"/>
            </g>
        </g>
        <g transform="matrix(0.212419,0,0,-0.212419,74.3597,217.623)">
            <path d="M1485.95,200.823L1490.12,201.431C1494.29,202.04 1502.62,203.257 1510.95,203.866C1519.29,204.475 1527.62,204.475 1535.95,204.475L1693.44,204.475" style="fill:none;fill-rule:nonzero;stroke:rgb(102,102,102);stroke-width:2px;"/>
        </g>
        <g transform="matrix(1,0,0,1,0,-493.622)">
            <path d="M431.784,666.537L434.333,667.811L431.784,669.086L431.784,666.537Z" style="fill:rgb(51,51,51);fill-rule:nonzero;"/>
        </g>
        <g transform="matrix(0.212419,0,0,-0.212419,74.3597,250.603)">
            <path d="M1643.44,220.823L1647.6,220.823C1651.77,220.823 1660.1,220.823 1673.24,240.641C1686.37,260.46 1704.31,300.097 1713.28,319.915L1722.25,339.734" style="fill:none;fill-rule:nonzero;stroke:rgb(102,102,102);stroke-width:2px;"/>
        </g>
        <g transform="matrix(1,0,0,1,0,-482.742)">
            <clipPath id="_clip6">
                <path d="M437.915,663.131L439.316,660.035L441.639,661.086L440.238,664.182L437.915,663.131Z" clip-rule="nonzero"/>
            </clipPath>
            <g clip-path="url(#_clip6)">
                <path d="M438.09,662.744L440.302,660.947L440.413,663.795L438.09,662.744Z" style="fill:rgb(51,51,51);fill-rule:nonzero;"/>
            </g>
        </g>
        <g transform="matrix(0.212419,0,0,-0.212419,74.3597,195.837)">
            <path d="M1747.23,121.911L1755.05,131.73C1762.87,141.548 1778.51,161.186 1790.5,171.004C1802.49,180.823 1810.82,180.823 1819.15,180.823L1933.87,180.823" style="fill:none;fill-rule:nonzero;stroke:rgb(102,102,102);stroke-width:2px;"/>
        </g>
        <g transform="matrix(1,0,0,1,0,-527.147)">
            <path d="M482.857,683.299L485.406,684.573L482.857,685.848L482.857,683.299Z" style="fill:rgb(51,51,51);fill-rule:nonzero;"/>
        </g>
        <g transform="matrix(0.212419,0,0,-0.212419,74.3597,220.622)">
            <path d="M1769.15,211.911L1773.32,211.176C1777.49,210.441 1785.82,208.971 1794.15,208.236C1802.49,207.501 1810.82,207.501 1819.15,207.501L1893.6,207.501" style="fill:none;fill-rule:nonzero;stroke:rgb(102,102,102);stroke-width:2px;"/>
        </g>
        <g transform="matrix(1,0,0,1,0,-488.911)">
            <path d="M474.302,664.181L476.851,665.455L474.302,666.73L474.302,664.181Z" style="fill:rgb(51,51,51);fill-rule:nonzero;"/>
        </g>
        <g transform="matrix(0.212419,0,0,-0.212419,74.3597,242.569)">
            <path d="M1743.73,301.911L1752.14,288.396C1760.54,274.882 1777.35,247.852 1789.92,234.337C1802.49,220.823 1810.82,220.823 1819.15,220.823L1909.43,220.823" style="fill:none;fill-rule:nonzero;stroke:rgb(102,102,102);stroke-width:2px;"/>
        </g>
        <g transform="matrix(1,0,0,1,0,-450.676)">
            <path d="M477.665,645.064L480.213,646.338L477.665,647.612L477.665,645.064Z" style="fill:rgb(51,51,51);fill-rule:nonzero;"/>
        </g>
        <g transform="matrix(0.212419,0,0,-0.212419,74.3597,261.687)">
            <path d="M1737.87,391.911L1747.25,363.396C1756.63,334.882 1775.39,277.852 1788.94,249.337C1802.49,220.823 1810.82,220.823 1819.15,220.823L1869.15,220.823" style="fill:none;fill-rule:nonzero;stroke:rgb(102,102,102);stroke-width:2px;"/>
        </g>
        <g transform="matrix(1,0,0,1,0,-412.441)">
            <path d="M469.11,625.946L471.659,627.22L469.11,628.495L469.11,625.946Z" style="fill:rgb(51,51,51);fill-rule:nonzero;"/>
        </g>
        <g transform="matrix(1,0,0,1,0,-527.147)">
            <rect x="485.151" y="680.325" width="43.48" height="8.497" style="fill:rgb(238,238,238);"/>
        </g>
        <g transform="matrix(0.212419,0,0,-0.212419,506.891,157.426)">
            <rect x="-102.344" y="-20" width="204.688" height="40" style="fill:none;stroke:rgb(153,153,153);stroke-width:1px;"/>
        </g>
        <g transform="matrix(1,0,0,1,0,-488.911)">
            <rect x="476.596" y="661.207" width="60.589" height="8.497" style="fill:rgb(238,238,238);"/>
        </g>
        <g transform="matrix(0.212419,0,0,-0.212419,506.891,176.544)">
            <rect x="-142.617" y="-20" width="285.234" height="40" style="fill:none;stroke:rgb(153,153,153);stroke-width:1px;"/>
        </g>
        <g transform="matrix(1,0,0,1,0,-450.676)">
            <rect x="479.959" y="642.09" width="53.865" height="8.497" style="fill:rgb(238,238,238);"/>
        </g>
        <g transform="matrix(0.212419,0,0,-0.212419,506.891,195.662)">
            <rect x="-126.789" y="-20" width="253.578" height="40" style="fill:none;stroke:rgb(153,153,153);stroke-width:1px;"/>
        </g>
        <g transform="matrix(1,0,0,1,0,-412.44)">
            <rect x="471.404" y="622.972" width="70.975" height="8.497" style="fill:rgb(238,238,238);"/>
        </g>
        <g transform="matrix(0.212419,0,0,-0.212419,506.891,214.78)">
            <rect x="-167.063" y="-20" width="334.125" height="40" style="fill:none;stroke:rgb(153,153,153);stroke-width:1px;"/>
        </g>
        <g transform="matrix(1,0,0,1,0,-434.608)">
            <rect x="411.246" y="634.056" width="12.211" height="8.497" style="fill:rgb(238,238,238);"/>
        </g>
        <g transform="matrix(0.212419,0,0,-0.212419,417.351,203.696)">
            <rect x="-28.742" y="-20" width="57.484" height="40" style="fill:none;stroke:rgb(153,153,153);stroke-width:1px;"/>
        </g>
        <g transform="matrix(1,0,0,1,0,-493.622)">
            <rect x="434.078" y="663.562" width="16.084" height="8.497" style="fill:rgb(238,238,238);"/>
        </g>
        <g transform="matrix(0.212419,0,0,-0.212419,442.12,174.189)">
            <rect x="-37.859" y="-20" width="75.719" height="40" style="fill:none;stroke:rgb(153,153,153);stroke-width:1px;"/>
        </g>
        <g transform="matrix(1,0,0,1,0,-489.374)">
            <rect x="371.544" y="661.439" width="18.461" height="8.497" style="fill:rgb(238,238,238);"/>
        </g>
        <g transform="matrix(0.212419,0,0,-0.212419,380.774,176.313)">
            <rect x="-43.453" y="-20" width="86.906" height="40" style="fill:none;stroke:rgb(153,153,153);stroke-width:1px;"/>
        </g>
        <g transform="matrix(1,0,0,1,0,-411.704)">
            <rect x="334.884" y="622.604" width="10.518" height="8.497" style="fill:rgb(238,238,238);"/>
        </g>
        <g transform="matrix(0.212419,0,0,-0.212419,340.143,215.148)">
            <rect x="-24.758" y="-20" width="49.516" height="40" style="fill:none;stroke:rgb(153,153,153);stroke-width:1px;"/>
        </g>
        <g transform="matrix(1,0,0,1,0,-411.704)">
            <rect x="374.879" y="622.604" width="11.789" height="8.497" style="fill:rgb(238,238,238);"/>
        </g>
        <g transform="matrix(0.212419,0,0,-0.212419,380.774,215.148)">
            <rect x="-27.75" y="-20" width="55.5" height="40" style="fill:none;stroke:rgb(153,153,153);stroke-width:1px;"/>
        </g>
        <g transform="matrix(1,0,0,1,0,-423.387)">
            <rect x="188.271" y="628.445" width="18.49" height="8.497" style="fill:rgb(238,238,238);"/>
        </g>
        <g transform="matrix(0.212419,0,0,-0.212419,197.516,209.306)">
            <rect x="-43.523" y="-20" width="87.047" height="40" style="fill:none;stroke:rgb(153,153,153);stroke-width:1px;"/>
        </g>
        <g transform="matrix(1,0,0,1,0,-423.387)">
            <rect x="217.383" y="628.445" width="11.491" height="8.497" style="fill:rgb(238,238,238);"/>
        </g>
        <g transform="matrix(0.212419,0,0,-0.212419,223.128,209.306)">
            <rect x="-27.047" y="-20" width="54.094" height="40" style="fill:none;stroke:rgb(153,153,153);stroke-width:1px;"/>
        </g>
        <g transform="matrix(1,0,0,1,0,-423.387)">
            <rect x="239.494" y="628.445" width="15.231" height="8.497" style="fill:rgb(238,238,238);"/>
        </g>
        <g transform="matrix(0.212419,0,0,-0.212419,247.11,209.306)">
            <rect x="-35.852" y="-20" width="71.703" height="40" style="fill:none;stroke:rgb(153,153,153);stroke-width:1px;"/>
        </g>
        <g transform="matrix(1,0,0,1,0,-423.387)">
            <rect x="265.346" y="628.445" width="17.405" height="8.497" style="fill:rgb(238,238,238);"/>
        </g>
        <g transform="matrix(0.212419,0,0,-0.212419,274.049,209.306)">
            <rect x="-40.969" y="-20" width="81.938" height="40" style="fill:none;stroke:rgb(153,153,153);stroke-width:1px;"/>
        </g>
        <g transform="matrix(1,0,0,1,0,-423.387)">
            <rect x="293.372" y="628.445" width="10.06" height="8.497" style="fill:rgb(238,238,238);"/>
        </g>
        <g transform="matrix(0.212419,0,0,-0.212419,298.402,209.306)">
            <rect x="-23.68" y="-20" width="47.359" height="40" style="fill:none;stroke:rgb(153,153,153);stroke-width:1px;"/>
        </g>
        <g transform="matrix(1,0,0,1,0,-427.635)">
            <rect x="154.503" y="630.569" width="12.526" height="8.497" style="fill:rgb(238,238,238);"/>
        </g>
        <g transform="matrix(0.212419,0,0,-0.212419,160.766,207.183)">
            <rect x="-29.484" y="-20" width="58.969" height="40" style="fill:none;stroke:rgb(153,153,153);stroke-width:1px;"/>
        </g>
        <g transform="matrix(1,0,0,1,0,-427.635)">
            <rect x="123.397" y="630.569" width="20.485" height="8.497" style="fill:rgb(238,238,238);"/>
        </g>
        <g transform="matrix(0.212419,0,0,-0.212419,133.64,207.183)">
            <rect x="-48.219" y="-20" width="96.438" height="40" style="fill:none;stroke:rgb(153,153,153);stroke-width:1px;"/>
        </g>
        <g transform="matrix(0.707111,-0.707103,-0.707103,-0.707111,475.758,720.954)">
            <rect x="80.658" y="623.714" width="22.208" height="22.208" style="fill:rgb(238,238,238);stroke:rgb(153,153,153);stroke-width:0.21px;"/>
        </g>
        <g transform="matrix(0.707109,-0.707104,-0.707104,-0.707109,570.335,887.543)">
            <rect x="329.205" y="654.749" width="21.876" height="21.876" style="fill:rgb(238,238,238);stroke:rgb(153,153,153);stroke-width:0.21px;"/>
        </g>
        <text x="492.211px" y="158.064px" style="font-family:'TrebuchetMS', 'Trebuchet MS', sans-serif;font-size:2.549px;">webis-stereo21/cases-full</text>
        <text x="485.738px" y="177.182px" style="font-family:'TrebuchetMS', 'Trebuchet MS', sans-serif;font-size:2.549px;">webis-stereo21/cases-metadata-only</text>
        <text x="488.33px" y="196.299px" style="font-family:'TrebuchetMS', 'Trebuchet MS', sans-serif;font-size:2.549px;">webis-stereo21/publications-full</text>
        <text x="481.856px" y="215.417px" style="font-family:'TrebuchetMS', 'Trebuchet MS', sans-serif;font-size:2.549px;">webis-stereo21/publications-metadata-only</text>
        <text x="414.314px" y="204.334px" style="font-family:'TrebuchetMS', 'Trebuchet MS', sans-serif;font-size:2.549px;">Unify</text>
        <g>
            <text x="437.71px" y="174.826px" style="font-family:'TrebuchetMS', 'Trebuchet MS', sans-serif;font-size:2.549px;">Finalize</text>
            <text x="375.455px" y="176.95px" style="font-family:'TrebuchetMS', 'Trebuchet MS', sans-serif;font-size:2.549px;">Metadata</text>
        </g>
        <text x="337.842px" y="215.785px" style="font-family:'TrebuchetMS', 'Trebuchet MS', sans-serif;font-size:2.549px;">Join</text>
        <text x="378px" y="215.785px" style="font-family:'TrebuchetMS', 'Trebuchet MS', sans-serif;font-size:2.549px;">Align</text>
        <text x="192.169px" y="209.944px" style="font-family:'TrebuchetMS', 'Trebuchet MS', sans-serif;font-size:2.549px;">V<tspan x="193.503px 194.893px " y="209.944px 209.944px ">ec</tspan>torize</text>
        <text x="220.401px" y="209.944px" style="font-family:'TrebuchetMS', 'Trebuchet MS', sans-serif;font-size:2.549px;">Hash</text>
        <text x="243.023px" y="209.944px" style="font-family:'TrebuchetMS', 'Trebuchet MS', sans-serif;font-size:2.549px;">R<tspan x="244.404px 245.795px " y="209.944px 209.944px ">ed</tspan>uce</text>
        <text x="269.12px" y="209.944px" style="font-family:'TrebuchetMS', 'Trebuchet MS', sans-serif;font-size:2.549px;">P<tspan x="270.423px 271.762px " y="209.944px 209.944px ">ar</tspan>tition</text>
        <text x="296.185px" y="209.944px" style="font-family:'TrebuchetMS', 'Trebuchet MS', sans-serif;font-size:2.549px;">P<tspan x="297.487px 298.827px " y="209.944px 209.944px ">ai</tspan>r</text>
        <text x="157.664px" y="207.82px" style="font-family:'TrebuchetMS', 'Trebuchet MS', sans-serif;font-size:2.549px;">Filter</text>
        <text x="127.503px" y="207.82px" style="font-family:'TrebuchetMS', 'Trebuchet MS', sans-serif;font-size:2.549px;">P<tspan x="128.805px 129.795px " y="207.82px 207.82px ">re</tspan>process</text>
        <g>
            <text x="83.426px" y="207.82px" style="font-family:'TrebuchetMS', 'Trebuchet MS', sans-serif;font-size:2.549px;">COR</text>
            <text x="88.151px" y="207.82px" style="font-family:'TrebuchetMS', 'Trebuchet MS', sans-serif;font-size:2.549px;">E</text>
            <text x="90.285px" y="207.82px" style="font-family:'TrebuchetMS', 'Trebuchet MS', sans-serif;font-size:2.549px;">+ <tspan x="92.621px " y="207.82px ">G</tspan>robid</text>
        </g>
        <g>
            <text x="332.051px" y="176.95px" style="font-family:'TrebuchetMS', 'Trebuchet MS', sans-serif;font-size:2.549px;">Microsof</text>
            <text x="341.548px" y="176.95px" style="font-family:'TrebuchetMS', 'Trebuchet MS', sans-serif;font-size:2.549px;">t</text>
            <text x="343.328px" y="176.95px" style="font-family:'TrebuchetMS', 'Trebuchet MS', sans-serif;font-size:2.549px;">OAG</text>
        </g>
    </g>
</svg>
